<svg width="72" height="72" viewBox="0 0 72 72" fill="none" xmlns="http://www.w3.org/2000/svg">
  <rect width="72" height="72" rx="16" fill="#3b82f6"/>
  <path d="M18 24h36v24H18V24z" fill="white" opacity="0.9"/>
  <path d="M22 28h8v4h-8v-4zm12 0h8v4h-8v-4zm12 0h8v4h-8v-4z" fill="#3b82f6"/>
  <path d="M22 36h8v4h-8v-4zm12 0h8v4h-8v-4zm12 0h8v4h-8v-4z" fill="#3b82f6"/>
  <path d="M22 44h8v4h-8v-4zm12 0h8v4h-8v-4zm12 0h8v4h-8v-4z" fill="#3b82f6"/>
  <text x="36" y="58" text-anchor="middle" fill="white" font-family="Arial, sans-serif" font-size="8" font-weight="bold">Rento</text>
</svg>